<svg width="194" height="256" viewBox="0 0 194 256" fill="none" xmlns="http://www.w3.org/2000/svg">
<circle cx="188.385" cy="128" r="4.67774" fill="#0EB39F"/>
<circle cx="188.385" cy="103.336" r="4.67774" fill="#0EB39F"/>
<circle cx="188.385" cy="78.6711" r="4.67774" fill="#0EB39F"/>
<circle cx="188.385" cy="54.0067" r="4.67774" fill="#0EB39F"/>
<circle cx="188.385" cy="29.3422" r="4.67774" fill="#0EB39F"/>
<circle cx="188.385" cy="4.67774" r="4.67774" fill="#0EB39F"/>
<circle cx="165.422" cy="128" r="4.67774" fill="#0EB39F"/>
<circle cx="165.422" cy="103.336" r="4.67774" fill="#0EB39F"/>
<circle cx="165.422" cy="78.6711" r="4.67774" fill="#0EB39F"/>
<circle cx="165.422" cy="54.0067" r="4.67774" fill="#0EB39F"/>
<circle cx="165.422" cy="29.3422" r="4.67774" fill="#0EB39F"/>
<circle cx="165.422" cy="4.67774" r="4.67774" fill="#0EB39F"/>
<circle cx="142.458" cy="128" r="4.67774" fill="#0EB39F"/>
<circle cx="142.458" cy="103.336" r="4.67774" fill="#0EB39F"/>
<circle cx="142.458" cy="78.6711" r="4.67774" fill="#0EB39F"/>
<circle cx="142.458" cy="54.0067" r="4.67774" fill="#0EB39F"/>
<circle cx="142.458" cy="29.3422" r="4.67774" fill="#0EB39F"/>
<circle cx="142.458" cy="4.67774" r="4.67774" fill="#0EB39F"/>
<circle cx="119.495" cy="128" r="4.67774" fill="#0EB39F"/>
<circle cx="119.495" cy="103.336" r="4.67774" fill="#0EB39F"/>
<circle cx="119.495" cy="78.6711" r="4.67774" fill="#0EB39F"/>
<circle cx="119.495" cy="54.0067" r="4.67774" fill="#0EB39F"/>
<circle cx="119.495" cy="29.3422" r="4.67774" fill="#0EB39F"/>
<circle cx="119.495" cy="4.67774" r="4.67774" fill="#0EB39F"/>
<circle cx="96.5315" cy="251.322" r="4.67774" fill="#0EB39F"/>
<circle cx="96.5315" cy="226.658" r="4.67774" fill="#0EB39F"/>
<circle cx="96.5315" cy="201.993" r="4.67774" fill="#0EB39F"/>
<circle cx="96.5315" cy="177.329" r="4.67774" fill="#0EB39F"/>
<circle cx="96.5315" cy="152.664" r="4.67774" fill="#0EB39F"/>
<circle cx="96.5315" cy="128" r="4.67774" fill="#0EB39F"/>
<circle cx="96.5315" cy="103.336" r="4.67774" fill="#0EB39F"/>
<circle cx="96.5315" cy="78.6711" r="4.67774" fill="#0EB39F"/>
<circle cx="96.5315" cy="54.0067" r="4.67774" fill="#0EB39F"/>
<circle cx="96.5315" cy="29.3422" r="4.67774" fill="#0EB39F"/>
<circle cx="96.5315" cy="4.67774" r="4.67774" fill="#0EB39F"/>
<circle cx="73.5681" cy="251.322" r="4.67774" fill="#0EB39F"/>
<circle cx="73.5681" cy="226.658" r="4.67774" fill="#0EB39F"/>
<circle cx="73.5681" cy="201.993" r="4.67774" fill="#0EB39F"/>
<circle cx="73.5681" cy="177.329" r="4.67774" fill="#0EB39F"/>
<circle cx="73.5681" cy="152.664" r="4.67774" fill="#0EB39F"/>
<circle cx="73.5681" cy="128" r="4.67774" fill="#0EB39F"/>
<circle cx="73.5681" cy="103.336" r="4.67774" fill="#0EB39F"/>
<circle cx="73.5681" cy="78.6711" r="4.67774" fill="#0EB39F"/>
<circle cx="73.5681" cy="54.0067" r="4.67774" fill="#0EB39F"/>
<circle cx="73.5681" cy="29.3422" r="4.67774" fill="#0EB39F"/>
<circle cx="73.5681" cy="4.67774" r="4.67774" fill="#0EB39F"/>
<circle cx="50.6046" cy="251.322" r="4.67774" fill="#0EB39F"/>
<circle cx="50.6046" cy="226.658" r="4.67774" fill="#0EB39F"/>
<circle cx="50.6046" cy="201.993" r="4.67774" fill="#0EB39F"/>
<circle cx="50.6046" cy="177.329" r="4.67774" fill="#0EB39F"/>
<circle cx="50.6046" cy="152.664" r="4.67774" fill="#0EB39F"/>
<circle cx="50.6046" cy="128" r="4.67774" fill="#0EB39F"/>
<circle cx="50.6046" cy="103.336" r="4.67774" fill="#0EB39F"/>
<circle cx="50.6046" cy="78.6711" r="4.67774" fill="#0EB39F"/>
<circle cx="50.6046" cy="54.0067" r="4.67774" fill="#0EB39F"/>
<circle cx="50.6046" cy="29.3422" r="4.67774" fill="#0EB39F"/>
<circle cx="50.6046" cy="4.67774" r="4.67774" fill="#0EB39F"/>
<circle cx="27.6412" cy="251.322" r="4.67774" fill="#0EB39F"/>
<circle cx="27.6412" cy="226.658" r="4.67774" fill="#0EB39F"/>
<circle cx="27.6412" cy="201.993" r="4.67774" fill="#0EB39F"/>
<circle cx="27.6412" cy="177.329" r="4.67774" fill="#0EB39F"/>
<circle cx="27.6412" cy="152.664" r="4.67774" fill="#0EB39F"/>
<circle cx="27.6412" cy="128" r="4.67774" fill="#0EB39F"/>
<circle cx="27.6412" cy="103.336" r="4.67774" fill="#0EB39F"/>
<circle cx="27.6412" cy="78.6711" r="4.67774" fill="#0EB39F"/>
<circle cx="27.6412" cy="54.0067" r="4.67774" fill="#0EB39F"/>
<circle cx="27.6412" cy="29.3422" r="4.67774" fill="#0EB39F"/>
<circle cx="27.6412" cy="4.67774" r="4.67774" fill="#0EB39F"/>
<circle cx="4.67774" cy="251.322" r="4.67774" fill="#0EB39F"/>
<circle cx="4.67774" cy="226.658" r="4.67774" fill="#0EB39F"/>
<circle cx="4.67774" cy="201.993" r="4.67774" fill="#0EB39F"/>
<circle cx="4.67774" cy="177.329" r="4.67774" fill="#0EB39F"/>
<circle cx="4.67774" cy="152.664" r="4.67774" fill="#0EB39F"/>
<circle cx="4.67774" cy="128" r="4.67774" fill="#0EB39F"/>
<circle cx="4.67774" cy="103.336" r="4.67774" fill="#0EB39F"/>
<circle cx="4.67774" cy="78.6711" r="4.67774" fill="#0EB39F"/>
<circle cx="4.67774" cy="54.0067" r="4.67774" fill="#0EB39F"/>
<circle cx="4.67774" cy="29.3422" r="4.67774" fill="#0EB39F"/>
<circle cx="4.67774" cy="4.67774" r="4.67774" fill="#0EB39F"/>
</svg>
