<svg width="194" height="256" viewBox="0 0 194 256" fill="none" xmlns="http://www.w3.org/2000/svg">
<circle cx="4.67773" cy="128" r="4.67774" transform="rotate(-180 4.67773 128)" fill="#0EB39F"/>
<circle cx="4.67773" cy="152.664" r="4.67774" transform="rotate(-180 4.67773 152.664)" fill="#0EB39F"/>
<circle cx="4.67773" cy="177.329" r="4.67774" transform="rotate(-180 4.67773 177.329)" fill="#0EB39F"/>
<circle cx="4.67773" cy="201.993" r="4.67774" transform="rotate(-180 4.67773 201.993)" fill="#0EB39F"/>
<circle cx="4.67773" cy="226.658" r="4.67774" transform="rotate(-180 4.67773 226.658)" fill="#0EB39F"/>
<circle cx="4.67773" cy="251.322" r="4.67774" transform="rotate(-180 4.67773 251.322)" fill="#0EB39F"/>
<circle cx="27.6412" cy="128" r="4.67774" transform="rotate(-180 27.6412 128)" fill="#0EB39F"/>
<circle cx="27.6412" cy="152.664" r="4.67774" transform="rotate(-180 27.6412 152.664)" fill="#0EB39F"/>
<circle cx="27.6412" cy="177.329" r="4.67774" transform="rotate(-180 27.6412 177.329)" fill="#0EB39F"/>
<circle cx="27.6412" cy="201.993" r="4.67774" transform="rotate(-180 27.6412 201.993)" fill="#0EB39F"/>
<circle cx="27.6412" cy="226.658" r="4.67774" transform="rotate(-180 27.6412 226.658)" fill="#0EB39F"/>
<circle cx="27.6412" cy="251.322" r="4.67774" transform="rotate(-180 27.6412 251.322)" fill="#0EB39F"/>
<circle cx="50.6046" cy="128" r="4.67774" transform="rotate(-180 50.6046 128)" fill="#0EB39F"/>
<circle cx="50.6046" cy="152.664" r="4.67774" transform="rotate(-180 50.6046 152.664)" fill="#0EB39F"/>
<circle cx="50.6046" cy="177.329" r="4.67774" transform="rotate(-180 50.6046 177.329)" fill="#0EB39F"/>
<circle cx="50.6046" cy="201.993" r="4.67774" transform="rotate(-180 50.6046 201.993)" fill="#0EB39F"/>
<circle cx="50.6046" cy="226.658" r="4.67774" transform="rotate(-180 50.6046 226.658)" fill="#0EB39F"/>
<circle cx="50.6046" cy="251.322" r="4.67774" transform="rotate(-180 50.6046 251.322)" fill="#0EB39F"/>
<circle cx="73.5681" cy="128" r="4.67774" transform="rotate(-180 73.5681 128)" fill="#0EB39F"/>
<circle cx="73.5681" cy="152.664" r="4.67774" transform="rotate(-180 73.5681 152.664)" fill="#0EB39F"/>
<circle cx="73.5681" cy="177.329" r="4.67774" transform="rotate(-180 73.5681 177.329)" fill="#0EB39F"/>
<circle cx="73.5681" cy="201.993" r="4.67774" transform="rotate(-180 73.5681 201.993)" fill="#0EB39F"/>
<circle cx="73.5681" cy="226.658" r="4.67774" transform="rotate(-180 73.5681 226.658)" fill="#0EB39F"/>
<circle cx="73.5681" cy="251.322" r="4.67774" transform="rotate(-180 73.5681 251.322)" fill="#0EB39F"/>
<circle cx="96.5316" cy="4.67773" r="4.67774" transform="rotate(-180 96.5316 4.67773)" fill="#0EB39F"/>
<circle cx="96.5316" cy="29.3422" r="4.67774" transform="rotate(-180 96.5316 29.3422)" fill="#0EB39F"/>
<circle cx="96.5316" cy="54.0066" r="4.67774" transform="rotate(-180 96.5316 54.0066)" fill="#0EB39F"/>
<circle cx="96.5316" cy="78.6711" r="4.67774" transform="rotate(-180 96.5316 78.6711)" fill="#0EB39F"/>
<circle cx="96.5316" cy="103.336" r="4.67774" transform="rotate(-180 96.5316 103.336)" fill="#0EB39F"/>
<circle cx="96.5316" cy="128" r="4.67774" transform="rotate(-180 96.5316 128)" fill="#0EB39F"/>
<circle cx="96.5316" cy="152.664" r="4.67774" transform="rotate(-180 96.5316 152.664)" fill="#0EB39F"/>
<circle cx="96.5316" cy="177.329" r="4.67774" transform="rotate(-180 96.5316 177.329)" fill="#0EB39F"/>
<circle cx="96.5316" cy="201.993" r="4.67774" transform="rotate(-180 96.5316 201.993)" fill="#0EB39F"/>
<circle cx="96.5316" cy="226.658" r="4.67774" transform="rotate(-180 96.5316 226.658)" fill="#0EB39F"/>
<circle cx="96.5316" cy="251.322" r="4.67774" transform="rotate(-180 96.5316 251.322)" fill="#0EB39F"/>
<circle cx="119.495" cy="4.67773" r="4.67774" transform="rotate(-180 119.495 4.67773)" fill="#0EB39F"/>
<circle cx="119.495" cy="29.3422" r="4.67774" transform="rotate(-180 119.495 29.3422)" fill="#0EB39F"/>
<circle cx="119.495" cy="54.0066" r="4.67774" transform="rotate(-180 119.495 54.0066)" fill="#0EB39F"/>
<circle cx="119.495" cy="78.6711" r="4.67774" transform="rotate(-180 119.495 78.6711)" fill="#0EB39F"/>
<circle cx="119.495" cy="103.336" r="4.67774" transform="rotate(-180 119.495 103.336)" fill="#0EB39F"/>
<circle cx="119.495" cy="128" r="4.67774" transform="rotate(-180 119.495 128)" fill="#0EB39F"/>
<circle cx="119.495" cy="152.664" r="4.67774" transform="rotate(-180 119.495 152.664)" fill="#0EB39F"/>
<circle cx="119.495" cy="177.329" r="4.67774" transform="rotate(-180 119.495 177.329)" fill="#0EB39F"/>
<circle cx="119.495" cy="201.993" r="4.67774" transform="rotate(-180 119.495 201.993)" fill="#0EB39F"/>
<circle cx="119.495" cy="226.658" r="4.67774" transform="rotate(-180 119.495 226.658)" fill="#0EB39F"/>
<circle cx="119.495" cy="251.322" r="4.67774" transform="rotate(-180 119.495 251.322)" fill="#0EB39F"/>
<circle cx="142.458" cy="4.67773" r="4.67774" transform="rotate(-180 142.458 4.67773)" fill="#0EB39F"/>
<circle cx="142.458" cy="29.3422" r="4.67774" transform="rotate(-180 142.458 29.3422)" fill="#0EB39F"/>
<circle cx="142.458" cy="54.0066" r="4.67774" transform="rotate(-180 142.458 54.0066)" fill="#0EB39F"/>
<circle cx="142.458" cy="78.6711" r="4.67774" transform="rotate(-180 142.458 78.6711)" fill="#0EB39F"/>
<circle cx="142.458" cy="103.336" r="4.67774" transform="rotate(-180 142.458 103.336)" fill="#0EB39F"/>
<circle cx="142.458" cy="128" r="4.67774" transform="rotate(-180 142.458 128)" fill="#0EB39F"/>
<circle cx="142.458" cy="152.664" r="4.67774" transform="rotate(-180 142.458 152.664)" fill="#0EB39F"/>
<circle cx="142.458" cy="177.329" r="4.67774" transform="rotate(-180 142.458 177.329)" fill="#0EB39F"/>
<circle cx="142.458" cy="201.993" r="4.67774" transform="rotate(-180 142.458 201.993)" fill="#0EB39F"/>
<circle cx="142.458" cy="226.658" r="4.67774" transform="rotate(-180 142.458 226.658)" fill="#0EB39F"/>
<circle cx="142.458" cy="251.322" r="4.67774" transform="rotate(-180 142.458 251.322)" fill="#0EB39F"/>
<circle cx="165.422" cy="4.67773" r="4.67774" transform="rotate(-180 165.422 4.67773)" fill="#0EB39F"/>
<circle cx="165.422" cy="29.3422" r="4.67774" transform="rotate(-180 165.422 29.3422)" fill="#0EB39F"/>
<circle cx="165.422" cy="54.0066" r="4.67774" transform="rotate(-180 165.422 54.0066)" fill="#0EB39F"/>
<circle cx="165.422" cy="78.6711" r="4.67774" transform="rotate(-180 165.422 78.6711)" fill="#0EB39F"/>
<circle cx="165.422" cy="103.336" r="4.67774" transform="rotate(-180 165.422 103.336)" fill="#0EB39F"/>
<circle cx="165.422" cy="128" r="4.67774" transform="rotate(-180 165.422 128)" fill="#0EB39F"/>
<circle cx="165.422" cy="152.664" r="4.67774" transform="rotate(-180 165.422 152.664)" fill="#0EB39F"/>
<circle cx="165.422" cy="177.329" r="4.67774" transform="rotate(-180 165.422 177.329)" fill="#0EB39F"/>
<circle cx="165.422" cy="201.993" r="4.67774" transform="rotate(-180 165.422 201.993)" fill="#0EB39F"/>
<circle cx="165.422" cy="226.658" r="4.67774" transform="rotate(-180 165.422 226.658)" fill="#0EB39F"/>
<circle cx="165.422" cy="251.322" r="4.67774" transform="rotate(-180 165.422 251.322)" fill="#0EB39F"/>
<circle cx="188.385" cy="4.67773" r="4.67774" transform="rotate(-180 188.385 4.67773)" fill="#0EB39F"/>
<circle cx="188.385" cy="29.3422" r="4.67774" transform="rotate(-180 188.385 29.3422)" fill="#0EB39F"/>
<circle cx="188.385" cy="54.0066" r="4.67774" transform="rotate(-180 188.385 54.0066)" fill="#0EB39F"/>
<circle cx="188.385" cy="78.6711" r="4.67774" transform="rotate(-180 188.385 78.6711)" fill="#0EB39F"/>
<circle cx="188.385" cy="103.336" r="4.67774" transform="rotate(-180 188.385 103.336)" fill="#0EB39F"/>
<circle cx="188.385" cy="128" r="4.67774" transform="rotate(-180 188.385 128)" fill="#0EB39F"/>
<circle cx="188.385" cy="152.664" r="4.67774" transform="rotate(-180 188.385 152.664)" fill="#0EB39F"/>
<circle cx="188.385" cy="177.329" r="4.67774" transform="rotate(-180 188.385 177.329)" fill="#0EB39F"/>
<circle cx="188.385" cy="201.993" r="4.67774" transform="rotate(-180 188.385 201.993)" fill="#0EB39F"/>
<circle cx="188.385" cy="226.658" r="4.67774" transform="rotate(-180 188.385 226.658)" fill="#0EB39F"/>
<circle cx="188.385" cy="251.322" r="4.67774" transform="rotate(-180 188.385 251.322)" fill="#0EB39F"/>
</svg>
